<mxfile host="app.diagrams.net" agent="Mozilla/5.0 (X11; Linux x86_64) AppleWebKit/537.36 (KHTML, like Gecko) Chrome/131.0.0.0 Safari/537.36" version="26.0.3">
  <diagram name="Page-1" id="MJR20Dg70ywQzG5FbVup">
    <mxGraphModel dx="1797" dy="1827" grid="1" gridSize="10" guides="1" tooltips="1" connect="1" arrows="1" fold="1" page="1" pageScale="1" pageWidth="850" pageHeight="1100" math="0" shadow="0">
      <root>
        <mxCell id="0" />
        <mxCell id="1" parent="0" />
        <mxCell id="6IggC1jZn_n8l4aRYc6C-60" value="" style="ellipse;whiteSpace=wrap;html=1;aspect=fixed;fillColor=#dae8fc;strokeColor=#6c8ebf;" vertex="1" parent="1">
          <mxGeometry x="-290" y="-225" width="965" height="965" as="geometry" />
        </mxCell>
        <mxCell id="6IggC1jZn_n8l4aRYc6C-20" value="" style="ellipse;whiteSpace=wrap;html=1;aspect=fixed;fillColor=#d5e8d4;strokeColor=#82b366;" vertex="1" parent="1">
          <mxGeometry x="-160" y="-160" width="822.5" height="822.5" as="geometry" />
        </mxCell>
        <mxCell id="6IggC1jZn_n8l4aRYc6C-12" value="" style="ellipse;whiteSpace=wrap;html=1;aspect=fixed;fillColor=#f8cecc;gradientColor=none;strokeColor=#b85450;" vertex="1" parent="1">
          <mxGeometry x="130" y="-30" width="515" height="515" as="geometry" />
        </mxCell>
        <mxCell id="6IggC1jZn_n8l4aRYc6C-2" value="" style="ellipse;whiteSpace=wrap;html=1;aspect=fixed;fillColor=#e3c800;strokeColor=#B09500;fontColor=#000000;" vertex="1" parent="1">
          <mxGeometry x="330" y="60" width="300" height="300" as="geometry" />
        </mxCell>
        <mxCell id="6IggC1jZn_n8l4aRYc6C-3" value="&lt;font style=&quot;font-size: 20px;&quot;&gt;Entities&lt;/font&gt;" style="text;html=1;align=center;verticalAlign=middle;whiteSpace=wrap;rounded=0;" vertex="1" parent="1">
          <mxGeometry x="450" y="90" width="60" height="30" as="geometry" />
        </mxCell>
        <mxCell id="6IggC1jZn_n8l4aRYc6C-4" value="Customer" style="rounded=1;whiteSpace=wrap;html=1;" vertex="1" parent="1">
          <mxGeometry x="360" y="150" width="100" height="30" as="geometry" />
        </mxCell>
        <mxCell id="6IggC1jZn_n8l4aRYc6C-5" value="Order" style="rounded=1;whiteSpace=wrap;html=1;" vertex="1" parent="1">
          <mxGeometry x="360" y="200" width="100" height="30" as="geometry" />
        </mxCell>
        <mxCell id="6IggC1jZn_n8l4aRYc6C-6" value="Product" style="rounded=1;whiteSpace=wrap;html=1;" vertex="1" parent="1">
          <mxGeometry x="430" y="260" width="100" height="30" as="geometry" />
        </mxCell>
        <mxCell id="6IggC1jZn_n8l4aRYc6C-31" style="rounded=0;orthogonalLoop=1;jettySize=auto;html=1;dashed=1;" edge="1" parent="1" source="6IggC1jZn_n8l4aRYc6C-7" target="6IggC1jZn_n8l4aRYc6C-5">
          <mxGeometry relative="1" as="geometry" />
        </mxCell>
        <mxCell id="6IggC1jZn_n8l4aRYc6C-7" value="Discount" style="rounded=1;whiteSpace=wrap;html=1;" vertex="1" parent="1">
          <mxGeometry x="510" y="200" width="100" height="30" as="geometry" />
        </mxCell>
        <mxCell id="6IggC1jZn_n8l4aRYc6C-9" value="" style="rounded=0;orthogonalLoop=1;jettySize=auto;html=1;dashed=1;" edge="1" parent="1" source="6IggC1jZn_n8l4aRYc6C-8" target="6IggC1jZn_n8l4aRYc6C-4">
          <mxGeometry relative="1" as="geometry" />
        </mxCell>
        <mxCell id="6IggC1jZn_n8l4aRYc6C-8" value="Address" style="rounded=1;whiteSpace=wrap;html=1;" vertex="1" parent="1">
          <mxGeometry x="510" y="150" width="100" height="30" as="geometry" />
        </mxCell>
        <mxCell id="6IggC1jZn_n8l4aRYc6C-14" value="&lt;font style=&quot;font-size: 20px;&quot;&gt;Use Cases&lt;/font&gt;" style="text;html=1;align=center;verticalAlign=middle;whiteSpace=wrap;rounded=0;" vertex="1" parent="1">
          <mxGeometry x="370" y="20" width="140" height="30" as="geometry" />
        </mxCell>
        <mxCell id="6IggC1jZn_n8l4aRYc6C-22" style="rounded=0;orthogonalLoop=1;jettySize=auto;html=1;" edge="1" parent="1" source="6IggC1jZn_n8l4aRYc6C-17" target="6IggC1jZn_n8l4aRYc6C-21">
          <mxGeometry relative="1" as="geometry" />
        </mxCell>
        <mxCell id="6IggC1jZn_n8l4aRYc6C-17" value="ProductService" style="rounded=1;whiteSpace=wrap;html=1;" vertex="1" parent="1">
          <mxGeometry x="150" y="220" width="120" height="30" as="geometry" />
        </mxCell>
        <mxCell id="6IggC1jZn_n8l4aRYc6C-18" value="IAppDbContext" style="rounded=1;whiteSpace=wrap;html=1;fillColor=#e1d5e7;strokeColor=#9673a6;" vertex="1" parent="1">
          <mxGeometry x="191.25" y="330" width="120" height="30" as="geometry" />
        </mxCell>
        <mxCell id="6IggC1jZn_n8l4aRYc6C-19" value="IImageService" style="rounded=1;whiteSpace=wrap;html=1;fillColor=#e1d5e7;strokeColor=#9673a6;" vertex="1" parent="1">
          <mxGeometry x="230" y="380" width="120" height="30" as="geometry" />
        </mxCell>
        <mxCell id="6IggC1jZn_n8l4aRYc6C-21" value="IProductService" style="rounded=1;whiteSpace=wrap;html=1;fillColor=#dae8fc;strokeColor=#6c8ebf;" vertex="1" parent="1">
          <mxGeometry x="191.25" y="130" width="120" height="30" as="geometry" />
        </mxCell>
        <mxCell id="6IggC1jZn_n8l4aRYc6C-25" style="rounded=0;orthogonalLoop=1;jettySize=auto;html=1;exitX=0.25;exitY=0;exitDx=0;exitDy=0;entryX=0;entryY=1;entryDx=0;entryDy=0;" edge="1" parent="1" source="6IggC1jZn_n8l4aRYc6C-23" target="6IggC1jZn_n8l4aRYc6C-24">
          <mxGeometry relative="1" as="geometry" />
        </mxCell>
        <mxCell id="6IggC1jZn_n8l4aRYc6C-23" value="CustomerService" style="rounded=1;whiteSpace=wrap;html=1;" vertex="1" parent="1">
          <mxGeometry x="150" y="180" width="120" height="30" as="geometry" />
        </mxCell>
        <mxCell id="6IggC1jZn_n8l4aRYc6C-24" value="ICustomerService" style="rounded=1;whiteSpace=wrap;html=1;fillColor=#dae8fc;strokeColor=#6c8ebf;" vertex="1" parent="1">
          <mxGeometry x="180" y="90" width="120" height="30" as="geometry" />
        </mxCell>
        <mxCell id="6IggC1jZn_n8l4aRYc6C-28" style="rounded=0;orthogonalLoop=1;jettySize=auto;html=1;entryX=0.75;entryY=1;entryDx=0;entryDy=0;exitX=0.75;exitY=0;exitDx=0;exitDy=0;" edge="1" parent="1" source="6IggC1jZn_n8l4aRYc6C-26" target="6IggC1jZn_n8l4aRYc6C-27">
          <mxGeometry relative="1" as="geometry" />
        </mxCell>
        <mxCell id="6IggC1jZn_n8l4aRYc6C-33" style="rounded=0;orthogonalLoop=1;jettySize=auto;html=1;shape=flexArrow;" edge="1" parent="1" source="6IggC1jZn_n8l4aRYc6C-26" target="6IggC1jZn_n8l4aRYc6C-2">
          <mxGeometry relative="1" as="geometry" />
        </mxCell>
        <mxCell id="6IggC1jZn_n8l4aRYc6C-26" value="OrderService" style="rounded=1;whiteSpace=wrap;html=1;" vertex="1" parent="1">
          <mxGeometry x="160" y="260" width="120" height="30" as="geometry" />
        </mxCell>
        <mxCell id="6IggC1jZn_n8l4aRYc6C-27" value="IOrderService" style="rounded=1;whiteSpace=wrap;html=1;fillColor=#dae8fc;strokeColor=#6c8ebf;" vertex="1" parent="1">
          <mxGeometry x="230" y="50" width="120" height="30" as="geometry" />
        </mxCell>
        <mxCell id="6IggC1jZn_n8l4aRYc6C-30" value="&lt;font style=&quot;font-size: 20px;&quot;&gt;Interface Adapters&lt;/font&gt;" style="text;html=1;align=center;verticalAlign=middle;whiteSpace=wrap;rounded=0;" vertex="1" parent="1">
          <mxGeometry x="200" y="-100" width="190" height="30" as="geometry" />
        </mxCell>
        <mxCell id="6IggC1jZn_n8l4aRYc6C-40" style="rounded=0;orthogonalLoop=1;jettySize=auto;html=1;shape=flexArrow;fillColor=default;" edge="1" parent="1" source="6IggC1jZn_n8l4aRYc6C-37" target="6IggC1jZn_n8l4aRYc6C-12">
          <mxGeometry relative="1" as="geometry" />
        </mxCell>
        <mxCell id="6IggC1jZn_n8l4aRYc6C-37" value="WEB" style="shape=folder;fontStyle=1;tabWidth=110;tabHeight=30;tabPosition=left;html=1;boundedLbl=1;labelInHeader=1;container=1;collapsible=0;recursiveResize=0;whiteSpace=wrap;" vertex="1" parent="1">
          <mxGeometry x="-90" y="70" width="180" height="140" as="geometry" />
        </mxCell>
        <mxCell id="6IggC1jZn_n8l4aRYc6C-38" value="CustomerController" style="html=1;whiteSpace=wrap;" vertex="1" parent="6IggC1jZn_n8l4aRYc6C-37">
          <mxGeometry width="140" height="30" relative="1" as="geometry">
            <mxPoint x="20" y="50" as="offset" />
          </mxGeometry>
        </mxCell>
        <mxCell id="6IggC1jZn_n8l4aRYc6C-43" value="ProductController" style="html=1;whiteSpace=wrap;" vertex="1" parent="6IggC1jZn_n8l4aRYc6C-37">
          <mxGeometry x="20" y="90" width="140" height="30" as="geometry" />
        </mxCell>
        <mxCell id="6IggC1jZn_n8l4aRYc6C-47" style="rounded=0;orthogonalLoop=1;jettySize=auto;html=1;startArrow=classic;startFill=1;endArrow=none;endFill=0;shape=flexArrow;entryX=0.069;entryY=0.759;entryDx=0;entryDy=0;entryPerimeter=0;" edge="1" parent="1" source="6IggC1jZn_n8l4aRYc6C-44" target="6IggC1jZn_n8l4aRYc6C-12">
          <mxGeometry relative="1" as="geometry" />
        </mxCell>
        <mxCell id="6IggC1jZn_n8l4aRYc6C-44" value="MS SQL" style="shape=folder;fontStyle=1;tabWidth=110;tabHeight=30;tabPosition=left;html=1;boundedLbl=1;labelInHeader=1;container=1;collapsible=0;recursiveResize=0;whiteSpace=wrap;" vertex="1" parent="1">
          <mxGeometry x="-90" y="300" width="180" height="110" as="geometry" />
        </mxCell>
        <mxCell id="6IggC1jZn_n8l4aRYc6C-45" value="AppDbContext" style="html=1;whiteSpace=wrap;" vertex="1" parent="6IggC1jZn_n8l4aRYc6C-44">
          <mxGeometry width="140" height="30" relative="1" as="geometry">
            <mxPoint x="20" y="50" as="offset" />
          </mxGeometry>
        </mxCell>
        <mxCell id="6IggC1jZn_n8l4aRYc6C-50" style="rounded=0;orthogonalLoop=1;jettySize=auto;html=1;entryX=0;entryY=1;entryDx=0;entryDy=0;shape=flexArrow;startArrow=block;endArrow=none;endFill=0;startWidth=14.285714285714286;startSize=4.6571428571428575;" edge="1" parent="1" source="6IggC1jZn_n8l4aRYc6C-48" target="6IggC1jZn_n8l4aRYc6C-12">
          <mxGeometry relative="1" as="geometry" />
        </mxCell>
        <mxCell id="6IggC1jZn_n8l4aRYc6C-68" style="rounded=0;orthogonalLoop=1;jettySize=auto;html=1;shape=flexArrow;" edge="1" parent="1" source="6IggC1jZn_n8l4aRYc6C-48" target="6IggC1jZn_n8l4aRYc6C-69">
          <mxGeometry relative="1" as="geometry">
            <mxPoint x="-215.0999999999999" y="626.0763743455495" as="targetPoint" />
          </mxGeometry>
        </mxCell>
        <mxCell id="6IggC1jZn_n8l4aRYc6C-48" value="External Services" style="shape=folder;fontStyle=1;tabWidth=110;tabHeight=30;tabPosition=left;html=1;boundedLbl=1;labelInHeader=1;container=1;collapsible=0;recursiveResize=0;whiteSpace=wrap;" vertex="1" parent="1">
          <mxGeometry x="11.25" y="440" width="180" height="110" as="geometry" />
        </mxCell>
        <mxCell id="6IggC1jZn_n8l4aRYc6C-49" value="ImageService" style="html=1;whiteSpace=wrap;" vertex="1" parent="6IggC1jZn_n8l4aRYc6C-48">
          <mxGeometry width="140" height="30" relative="1" as="geometry">
            <mxPoint x="20" y="50" as="offset" />
          </mxGeometry>
        </mxCell>
        <mxCell id="6IggC1jZn_n8l4aRYc6C-34" style="rounded=0;orthogonalLoop=1;jettySize=auto;html=1;entryX=0;entryY=0.5;entryDx=0;entryDy=0;shape=flexArrow;" edge="1" parent="1" source="6IggC1jZn_n8l4aRYc6C-23" target="6IggC1jZn_n8l4aRYc6C-2">
          <mxGeometry relative="1" as="geometry" />
        </mxCell>
        <mxCell id="6IggC1jZn_n8l4aRYc6C-35" style="rounded=0;orthogonalLoop=1;jettySize=auto;html=1;shape=flexArrow;" edge="1" parent="1" source="6IggC1jZn_n8l4aRYc6C-17" target="6IggC1jZn_n8l4aRYc6C-2">
          <mxGeometry relative="1" as="geometry" />
        </mxCell>
        <mxCell id="6IggC1jZn_n8l4aRYc6C-56" value="User" style="shape=umlActor;verticalLabelPosition=bottom;verticalAlign=top;html=1;outlineConnect=0;" vertex="1" parent="1">
          <mxGeometry x="-360" y="90" width="30" height="60" as="geometry" />
        </mxCell>
        <mxCell id="6IggC1jZn_n8l4aRYc6C-57" style="rounded=0;orthogonalLoop=1;jettySize=auto;html=1;entryX=0;entryY=0;entryDx=0;entryDy=57.5;entryPerimeter=0;shape=flexArrow;" edge="1" parent="1" source="6IggC1jZn_n8l4aRYc6C-56" target="6IggC1jZn_n8l4aRYc6C-37">
          <mxGeometry relative="1" as="geometry" />
        </mxCell>
        <mxCell id="6IggC1jZn_n8l4aRYc6C-61" value="&lt;font style=&quot;font-size: 20px;&quot;&gt;Framework &amp;amp; Drivers&lt;/font&gt;" style="text;html=1;align=center;verticalAlign=middle;whiteSpace=wrap;rounded=0;" vertex="1" parent="1">
          <mxGeometry x="60" y="-200" width="240" height="30" as="geometry" />
        </mxCell>
        <mxCell id="6IggC1jZn_n8l4aRYc6C-62" value="MyDbDriver" style="rounded=0;whiteSpace=wrap;html=1;" vertex="1" parent="1">
          <mxGeometry x="-250" y="390" width="80" height="40" as="geometry" />
        </mxCell>
        <mxCell id="6IggC1jZn_n8l4aRYc6C-63" style="rounded=0;orthogonalLoop=1;jettySize=auto;html=1;entryX=0;entryY=0;entryDx=0;entryDy=90;entryPerimeter=0;shape=flexArrow;startArrow=block;endArrow=none;endFill=0;" edge="1" parent="1" source="6IggC1jZn_n8l4aRYc6C-62" target="6IggC1jZn_n8l4aRYc6C-44">
          <mxGeometry relative="1" as="geometry" />
        </mxCell>
        <mxCell id="6IggC1jZn_n8l4aRYc6C-65" value="MS SQL" style="shape=cylinder3;whiteSpace=wrap;html=1;boundedLbl=1;backgroundOutline=1;size=15;" vertex="1" parent="1">
          <mxGeometry x="-390" y="380" width="60" height="80" as="geometry" />
        </mxCell>
        <mxCell id="6IggC1jZn_n8l4aRYc6C-66" style="rounded=0;orthogonalLoop=1;jettySize=auto;html=1;entryX=1;entryY=0.5;entryDx=0;entryDy=0;entryPerimeter=0;shape=flexArrow;" edge="1" parent="1" source="6IggC1jZn_n8l4aRYc6C-62" target="6IggC1jZn_n8l4aRYc6C-65">
          <mxGeometry relative="1" as="geometry" />
        </mxCell>
        <mxCell id="6IggC1jZn_n8l4aRYc6C-69" value="http://image_service" style="ellipse;shape=cloud;whiteSpace=wrap;html=1;" vertex="1" parent="1">
          <mxGeometry x="-390" y="600" width="160" height="80" as="geometry" />
        </mxCell>
      </root>
    </mxGraphModel>
  </diagram>
</mxfile>
